<?xml version="1.0" encoding="iso-8859-1"?>
<!-- Generator: Adobe Illustrator 19.0.0, SVG Export Plug-In . SVG Version: 6.00 Build 0)  -->
<svg version="1.1" id="Layer_1" xmlns="http://www.w3.org/2000/svg" xmlns:xlink="http://www.w3.org/1999/xlink" x="0px" y="0px"
	 viewBox="0 0 511.999 511.999" style="enable-background:new 0 0 511.999 511.999;" xml:space="preserve">
<g>
	<g>
		<path d="M508.18,327.137c-2.083-6.673-9.185-10.393-15.853-8.311c-6.673,2.083-10.394,9.18-8.311,15.853
			c4.358,13.962,5.491,33.585-13.872,47.779c-25.487,18.698-73.037,17.936-118.325-1.9c-9.604-4.193-18.867-9.182-27.565-14.847
			c-2.854-1.847-5.681-3.797-8.407-5.797c-29.564-21.674-47.215-48.596-47.215-72.014c0-12.995,5.546-23.654,16.481-31.674
			c2.173-1.591,4.596-3.095,7.155-4.443c36.163-18.859,100.796-7.006,147.145,26.982c5.636,4.135,13.557,2.915,17.694-2.721
			c4.134-5.638,2.915-13.557-2.721-17.692c-26.215-19.224-58.078-32.803-89.721-38.234c-13.959-2.396-27.47-3.134-40.101-2.272
			c5.693-10.878,8.813-23.154,8.813-35.952c0-26.041-12.928-49.104-32.686-63.155l23.893-84.506
			c1.901-6.726-2.01-13.722-8.736-15.623c-6.729-1.906-13.722,2.009-15.624,8.736l-22.671,80.181
			c-6.869-2.001-14.121-3.096-21.626-3.096c-7.029,0-14.033,0.995-20.777,2.864l-22.609-79.95
			c-1.902-6.726-8.898-10.641-15.624-8.735c-6.726,1.902-10.638,8.897-8.736,15.624l23.726,83.901
			c-20.856,14.35-33.443,37.938-33.443,63.759c0,12.797,3.115,25.07,8.803,35.943c-12.592-0.847-26.062-0.108-39.978,2.281
			c-31.642,5.431-63.506,19.01-89.719,38.233C21.518,284.782-0.001,319.335,0,350.781c0.001,20.907,9.53,39.408,26.831,52.09
			c16.731,12.269,39.424,18.413,64.784,18.411c20.637-0.001,43.036-4.087,65.408-12.237c2.786,8.002,6.082,15.652,9.869,22.854
			c20.43,38.805,53.713,61.972,89.031,61.972c35.334,0,68.622-23.178,89.05-62.008c3.796-7.226,7.091-14.875,9.866-22.848
			c22.406,8.174,44.834,12.271,65.498,12.27c25.351,0,48.051-6.145,64.777-18.414C509.27,385.164,517.677,357.559,508.18,327.137z
			 M281.636,364.148h-51.324c10.632-10.276,19.284-21.292,25.663-32.557C262.351,342.855,271.003,353.871,281.636,364.148z
			 M232.434,135.32c0.003-0.001,0.005-0.001,0.006-0.003c7.301-3.696,15.2-5.57,23.483-5.57c28.749,0,52.136,23.393,52.136,52.148
			c0,19.52-10.771,37.252-28.117,46.279c-7.455,3.886-15.536,5.857-24.02,5.857c-8.467,0-16.529-1.957-23.969-5.82
			c-17.381-9.015-28.18-26.762-28.18-46.316C203.774,162.105,214.755,144.26,232.434,135.32z M160.034,380.598
			c-45.245,19.794-92.758,20.539-118.234,1.858c-10.937-8.018-16.485-18.676-16.485-31.676
			c-0.001-23.414,17.651-50.335,47.221-72.015c31.46-23.072,71.338-35.942,105.012-35.942c15.936,0,30.487,2.885,42.088,8.936
			c2.605,1.371,5.028,2.875,7.194,4.462c10.941,8.024,16.486,18.682,16.486,31.678c0,23.419-17.649,50.34-47.213,72.013
			c-2.856,2.092-5.802,4.122-8.761,6.038c-0.118,0.071-0.234,0.143-0.349,0.216C178.496,371.643,169.429,376.499,160.034,380.598z
			 M255.922,468.558c-20.368,0-39.611-10.728-54.785-30.036h109.476C295.423,457.624,275.931,468.558,255.922,468.558z
			 M325.925,413.208H185.919c-2.071-4.547-3.923-9.288-5.564-14.185c5.876-2.935,11.608-6.13,17.147-9.56h116.937
			c5.515,3.419,11.225,6.596,17.071,9.52C329.868,403.882,328.009,408.636,325.925,413.208z"/>
	</g>
</g>
<g>
	<g>
		<path d="M485.992,287.76c-1.332-1.609-2.74-3.239-4.188-4.846c-4.679-5.193-12.684-5.608-17.876-0.93
			c-5.195,4.679-5.611,12.683-0.932,17.876c1.212,1.345,2.388,2.706,3.496,4.043c2.504,3.024,6.116,4.587,9.758,4.587
			c2.842,0,5.702-0.953,8.063-2.907C489.698,301.124,490.45,293.145,485.992,287.76z"/>
	</g>
</g>
<g>
</g>
<g>
</g>
<g>
</g>
<g>
</g>
<g>
</g>
<g>
</g>
<g>
</g>
<g>
</g>
<g>
</g>
<g>
</g>
<g>
</g>
<g>
</g>
<g>
</g>
<g>
</g>
<g>
</g>
</svg>
